<svg width="252" height="413" viewBox="0 0 252 413" fill="none" xmlns="http://www.w3.org/2000/svg">
<g clip-path="url(#clip0_5400_675)">
<path d="M40.5382 0.574759H211.074C221.198 0.574788 230.911 4.76699 238.075 12.2291V12.23C245.238 19.708 249.27 29.84 249.27 40.4058V475.638C249.27 485.874 245.486 495.703 238.738 503.092L238.076 503.799C230.912 511.262 221.199 515.455 211.074 515.455H40.5382C30.4157 515.455 20.7028 511.262 13.5382 503.799C6.37324 496.336 2.34496 486.204 2.34485 475.638V40.4058C2.34495 29.8399 6.37373 19.7079 13.5392 12.23L13.5382 12.2291C20.7027 4.76667 30.4159 0.574879 40.5382 0.574759Z" stroke="#E5E7EB"/>
<path d="M1.03174 106.1H1.34424V140.382H1.03174C0.976582 140.382 0.896973 140.328 0.896973 140.219V106.262C0.896973 106.181 0.941871 106.13 0.987793 106.11L1.03174 106.1Z" stroke="#E5E7EB"/>
<path d="M1.03174 150.984H1.34424V185.084H1.03174C0.976573 185.084 0.896973 185.031 0.896973 184.922V151.147C0.896973 151.065 0.941869 151.014 0.987793 150.994L1.03174 150.984Z" stroke="#E5E7EB"/>
<path d="M150.864 19.4516C149.498 19.4516 148.356 20.6112 148.356 22.0854C148.356 23.5596 149.498 24.7192 150.864 24.7192C152.229 24.7189 153.37 23.5594 153.37 22.0854C153.37 20.6113 152.229 19.4518 150.864 19.4516Z" stroke="#E5E7EB"/>
<path d="M113.126 21.2875H138.487C139.168 21.2876 139.753 21.8677 139.753 22.6293V22.6303L139.746 22.7709C139.68 23.4624 139.126 23.9729 138.487 23.973H113.126C112.444 23.973 111.857 23.3909 111.857 22.6303V22.6293L111.863 22.4896C111.93 21.7988 112.486 21.2875 113.126 21.2875Z" stroke="#E5E7EB"/>
<path d="M210.335 18.2597V18.7597C215.824 18.7598 221.103 20.9608 225.075 24.8994L225.456 25.2861C229.471 29.468 231.73 35.1445 231.73 41.0673V473.066C231.73 486.139 221.562 496.701 209.056 496.701H42.5552C30.0522 496.701 19.8824 486.139 19.8824 473.066V41.0673C19.8824 35.3295 22.0028 29.8231 25.7857 25.6826L26.1568 25.2861C30.046 21.2356 35.2728 18.9081 40.7486 18.7665L41.2798 18.7597H62.7925C64.6352 18.7597 66.1636 20.3219 66.1636 22.2929V23.1269C66.1637 26.7767 67.5538 30.2808 70.0377 32.8681V32.8691C72.5196 35.4572 75.8932 36.9149 79.4146 36.915H171.899C175.311 36.915 178.583 35.5469 181.044 33.1083L181.279 32.8691C183.76 30.2818 185.15 26.7771 185.15 23.1269V22.2929C185.15 20.3222 186.681 18.7597 188.521 18.7597H210.334L210.335 18.2597Z" stroke="#E5E7EB"/>
<path d="M250.789 118.087C250.957 118.087 251.089 118.134 251.165 118.184C251.194 118.204 251.207 118.22 251.213 118.228V173.464C251.207 173.472 251.195 173.489 251.165 173.509C251.09 173.559 250.958 173.606 250.789 173.606C250.61 173.606 250.436 173.591 250.266 173.566V118.126C250.436 118.101 250.61 118.087 250.789 118.087Z" stroke="#E5E7EB"/>
<path d="M1.03174 70.7936H1.34424V88.7194H1.03174C0.976559 88.7193 0.896973 88.6662 0.896973 88.5573V70.9557C0.896973 70.8738 0.941939 70.8232 0.987793 70.8034L1.03174 70.7936Z" stroke="#E5E7EB"/>
<path d="M41.0061 5.14722H210.608C229.532 5.14735 244.911 21.1517 244.911 40.9197V475.186C244.911 494.954 229.532 510.944 210.608 510.944H41.0061C22.0804 510.944 6.70342 494.954 6.70338 475.186V40.9197C6.70338 21.1518 22.0807 5.14746 41.0061 5.14722Z" stroke="#E5E7EB"/>
</g>
<defs>
<clipPath id="clip0_5400_675">
<rect width="252" height="413" fill="white"/>
</clipPath>
</defs>
</svg>
