<svg width="184" height="341" viewBox="0 0 184 341" fill="none" xmlns="http://www.w3.org/2000/svg">
<g clip-path="url(#clip0_5400_687)">
<path d="M-10.7149 1.21338H147.303C166.012 1.2135 181.186 16.5128 181.186 35.395V437.807C181.186 456.689 166.012 471.989 147.303 471.989H-10.7149C-29.425 471.989 -44.5996 456.689 -44.5997 437.807V35.395C-44.5997 16.5128 -29.425 1.21349 -10.7149 1.21338Z" stroke="#E5E7EB"/>
<path d="M-10.2893 5.74648H146.878C163.317 5.74648 176.649 19.1887 176.649 35.7787V437.42C176.649 454.01 163.317 467.453 146.878 467.453H-10.2893C-26.7279 467.453 -40.0617 454.01 -40.0618 437.42V35.7787C-40.0617 19.1888 -26.7279 5.74648 -10.2893 5.74648Z" stroke="#E5E7EB"/>
<path d="M182.475 101.92C182.561 101.92 182.644 101.946 182.716 101.994L182.783 102.049V102.05C182.865 102.132 182.911 102.245 182.911 102.365V134.9C182.911 134.99 182.886 135.077 182.838 135.149L182.783 135.215C182.7 135.299 182.589 135.345 182.475 135.345H182.187V101.92H182.475Z" stroke="#E5E7EB"/>
<path d="M68.3888 15.0324C69.4662 15.0324 70.3468 15.9147 70.3468 17.0119C70.3467 18.1091 69.4662 18.9914 68.3888 18.9914C67.3114 18.9913 66.4308 18.109 66.4308 17.0119C66.4308 15.9148 67.3114 15.0325 68.3888 15.0324Z" stroke="#E5E7EB"/>
<path d="M32.3745 28.0493C34.2326 28.0494 35.7466 29.57 35.7466 31.4546C35.7465 33.3391 34.2325 34.8597 32.3745 34.8598C30.5164 34.8598 29.0025 33.3391 29.0024 31.4546C29.0024 29.5699 30.5163 28.0493 32.3745 28.0493Z" stroke="#E5E7EB"/>
<path d="M50.3833 30.5289H86.3365C86.9029 30.5291 87.3716 30.9952 87.3716 31.5787C87.3715 32.1621 86.9029 32.6284 86.3365 32.6285H50.3833C49.8156 32.6285 49.3454 32.1611 49.3452 31.5787C49.3452 30.9963 49.8156 30.5289 50.3833 30.5289Z" stroke="#E5E7EB"/>
<path d="M-30.0361 57.91H166.816C167.643 57.9101 168.323 58.5896 168.323 59.4363V413.435C168.323 414.285 167.643 414.964 166.816 414.964H-30.0361C-30.8646 414.964 -31.5449 414.285 -31.5449 413.435V59.4363C-31.5449 58.5896 -30.8646 57.91 -30.0361 57.91Z" stroke="#E5E7EB"/>
</g>
<defs>
<clipPath id="clip0_5400_687">
<rect width="184" height="341" fill="white"/>
</clipPath>
</defs>
</svg>
